<?xml version="1.0" standalone="no"?>
<!DOCTYPE svg PUBLIC "-//W3C//DTD SVG 20010904//EN"
 "http://www.w3.org/TR/2001/REC-SVG-20010904/DTD/svg10.dtd">
<svg version="1.0" xmlns="http://www.w3.org/2000/svg"
 width="400.000000pt" height="400.000000pt" viewBox="0 0 400.000000 400.000000"
 preserveAspectRatio="xMidYMid meet">
<metadata>
Created by potrace 1.14, written by Peter Selinger 2001-2017
</metadata>
<g transform="translate(0.000000,400.000000) scale(0.100000,-0.100000)"
fill="#000000" stroke="none">
<path d="M1114 3616 c-39 -38 -44 -49 -44 -87 0 -41 -3 -46 -40 -67 -61 -34
-95 -101 -95 -184 0 -58 4 -72 30 -109 18 -26 50 -53 80 -68 48 -25 56 -26
248 -28 109 0 201 -4 204 -7 13 -13 -11 -37 -89 -88 -46 -30 -103 -71 -126
-91 -24 -21 -45 -37 -47 -37 -1 0 -22 9 -46 20 -74 33 -144 27 -238 -21 -91
-46 -135 -90 -145 -143 -6 -31 -11 -36 -36 -36 -49 0 -77 45 -84 137 -3 43
-10 99 -14 125 -5 26 -5 53 0 60 11 19 10 83 -3 111 -20 45 -114 75 -160 52
-48 -25 -79 -76 -79 -129 0 -89 40 -139 99 -123 16 4 19 -5 25 -88 3 -52 13
-113 22 -137 16 -47 63 -101 106 -124 40 -21 146 -18 184 5 30 18 64 74 64
104 0 20 57 67 81 67 11 0 35 -7 55 -15 l35 -14 -42 -62 c-23 -34 -61 -103
-85 -154 -42 -89 -46 -94 -94 -114 -27 -12 -87 -28 -132 -36 -46 -8 -105 -22
-132 -30 -99 -30 -146 -13 -185 68 -27 56 -27 110 0 147 17 23 21 38 16 70 -7
54 -38 86 -97 100 -57 14 -91 1 -128 -49 -44 -60 -22 -201 32 -201 20 0 24 -7
30 -41 13 -82 75 -176 141 -214 50 -30 126 -33 218 -9 44 11 80 14 126 9 109
-12 100 6 104 -205 2 -112 8 -204 16 -233 8 -26 11 -50 9 -53 -3 -2 -72 11
-153 31 -81 19 -153 35 -161 35 -10 0 -14 -14 -14 -50 0 -38 -4 -50 -15 -50
-13 0 -15 -50 -13 -412 l3 -413 354 -83 c251 -58 357 -79 361 -71 6 8 9 8 14
0 10 -16 1442 -16 1452 0 5 8 8 8 14 0 4 -8 110 13 361 71 l354 83 3 413 c2
362 0 412 -13 412 -11 0 -15 12 -15 50 0 37 -4 50 -14 50 -12 0 -201 -43 -247
-56 -15 -4 -15 1 -3 58 34 159 27 365 -17 533 l-21 80 29 22 c46 37 96 49 140
32 38 -15 57 -36 136 -159 29 -45 54 -70 82 -85 23 -11 47 -33 55 -50 14 -28
19 -30 77 -33 l62 -3 46 47 c37 40 45 54 45 86 0 64 -23 95 -82 113 -69 20
-72 20 -112 -15 l-34 -31 -19 28 c-11 16 -34 53 -51 84 -37 65 -111 138 -173
170 -47 24 -92 27 -228 14 -57 -6 -75 -4 -82 6 -17 28 -8 38 61 64 87 33 126
65 140 113 14 51 13 79 -6 143 -22 74 -99 150 -178 175 -38 12 -56 23 -56 34
0 26 55 105 109 158 45 43 51 53 51 90 0 75 -21 100 -104 121 -48 12 -83 -3
-122 -54 -25 -33 -26 -41 -21 -103 5 -58 2 -74 -20 -119 -49 -103 -27 -188 60
-229 29 -13 57 -24 62 -24 6 0 27 -14 48 -31 43 -36 49 -77 16 -110 -24 -24
-32 -23 -169 14 -70 18 -101 34 -170 84 -144 104 -333 188 -475 209 -89 13
-172 82 -205 170 -27 69 48 124 170 124 61 0 70 -3 135 -47 125 -83 222 -171
229 -207 12 -61 30 -76 97 -76 58 0 61 1 104 47 37 39 45 53 45 85 0 66 -22
95 -87 114 -54 16 -59 16 -87 0 l-29 -17 -51 49 c-60 58 -147 123 -212 157
-40 21 -60 25 -139 25 -181 0 -285 -55 -320 -169 -17 -58 -17 -87 1 -198 l6
-42 -38 -6 c-22 -3 -59 -10 -82 -16 -43 -9 -45 -9 -86 29 -57 52 -100 66 -189
58 -40 -3 -135 -9 -212 -12 -115 -5 -147 -4 -177 9 -81 34 -73 106 18 157 29
16 63 30 74 30 11 0 41 21 65 47 37 39 45 53 45 85 0 64 -23 95 -82 113 -72
21 -75 20 -124 -29z"/>
</g>
</svg>
