<?xml version="1.0" encoding="utf-8"?>
<!DOCTYPE svg PUBLIC "-//W3C//DTD SVG 1.0//EN" "http://www.w3.org/TR/2001/REC-SVG-20010904/DTD/svg10.dtd">
<svg version="1.0" xmlns="http://www.w3.org/2000/svg" width="1024px" height="1024px" viewBox="0 0 1024 1024" preserveAspectRatio="xMidYMid meet">
 <g fill="#ffffff">
  <path d="M428.2 856 c-2.9 -1.8 -11.2 -13.4 -15.5 -21.7 -1.9 -3.6 -2.2 -10.8 -0.7 -14.9 1 -2.6 1 -2.7 -1.2 -1.1 -7.6 5.4 -56.2 34.2 -61.5 36.3 -7 3 -19 1 -68.8 -11.5 -13.2 -3.3 -28.9 -7.2 -35 -8.6 -17 -3.9 -19.9 -5.5 -23.5 -12.5 -2.8 -5.5 -3.3 -10 -2.5 -23.7 0.7 -12.4 0.7 -12.6 4.1 -16.3 4.1 -4.5 4.2 -6.7 0.8 -11.7 -5.1 -7.5 -1.4 -13.6 13.2 -21.8 4.6 -2.6 8.4 -4.9 8.4 -5.2 0 -0.2 -3.5 -2 -7.7 -4 -16.8 -7.9 -21.4 -12.4 -22.3 -22.3 l-0.5 -5.5 -16 -1.2 c-24.1 -1.8 -26.3 -2.1 -27.6 -4.4 -1.3 -2.5 -0.3 -5.6 2 -6.4 1.7 -0.5 35.1 -3.5 39.9 -3.5 l2.2 0 0 -81.5 c0 -89.8 -0.2 -86.5 6.2 -90.5 4.8 -3 11.3 -2.2 22.3 2.8 5 2.2 28.7 12.6 52.7 23.1 32.3 14.1 45.1 19.2 49.2 19.7 3.1 0.4 5.6 0.4 5.6 0.1 0 -0.2 -2 -4 -4.4 -8.3 -9.1 -16.4 -17 -41.6 -19.6 -62.8 -1.5 -11.7 -0.8 -36.7 1.4 -47.1 0.8 -3.8 1.3 -7.1 1.1 -7.3 -1 -1 -5.7 2.7 -7.1 5.7 -1.6 3.2 -1.6 4.3 -0.3 11.1 0.8 4.1 1.4 11.3 1.4 16 0 7.5 -0.4 9.3 -3.4 15.8 -4 8.6 -10.5 15.1 -18.9 19 -5 2.4 -6.9 2.7 -16.2 2.7 -9.9 0 -11 -0.2 -17.1 -3.2 -20 -9.9 -27.4 -33.2 -17.2 -53.7 3.2 -6.3 11.6 -14.7 18 -18 4.1 -2 5.4 -3.3 6.7 -6.8 3 -7.5 9.6 -16.6 17.2 -23.7 10.7 -10 23.8 -16.3 38.7 -18.6 l3.7 -0.6 -5.4 -6.7 c-3 -3.7 -6.9 -9.6 -8.6 -13.2 -1.8 -3.6 -3.4 -6.6 -3.5 -6.8 -0.1 -0.1 -2.9 2.3 -6.1 5.4 -3.7 3.7 -8.5 7 -13.3 9.3 -7.4 3.5 -7.9 3.6 -19.6 3.6 -11.7 0 -12.2 -0.1 -19.6 -3.6 -30.5 -14.6 -34.5 -57.3 -7.1 -76.9 8.3 -6 17.2 -8.4 28.6 -7.8 9.3 0.6 13.3 1.9 24.5 8.2 5.4 3.1 7.4 2.8 20.3 -3 11.8 -5.3 22.5 -8.9 29.6 -9.9 l5.2 -0.7 -2.9 -3.3 c-1.6 -1.8 -4.4 -5.5 -6.2 -8.2 -1.8 -2.6 -6.5 -7.9 -10.4 -11.8 -19.3 -19 -20.5 -45.4 -2.8 -64.5 22.6 -24.4 63.4 -15 73.3 16.9 3.1 9.8 2.4 24.1 -1.5 34.2 -0.5 1.4 0.4 1.6 5.8 1.8 l6.3 0.2 2.4 -5.1 c3 -6.5 11.1 -14.1 17.5 -16.6 6.6 -2.5 16.4 -2.5 23 0 6.4 2.5 14.7 10.4 17.3 16.4 1.1 2.6 2.6 7.7 3.2 11.3 0.7 4.3 2 7.6 3.6 9.5 2.3 2.7 2.5 2.8 3.7 1 1.9 -2.9 10.6 -13.8 16.5 -20.7 4.3 -5 5.3 -6.7 5 -9.3 l-0.3 -3.1 -12.5 -0.6 c-13.7 -0.6 -17.7 -1.8 -26.8 -7.7 -23 -15 -25.8 -50.7 -5.4 -69.3 6.9 -6.3 13.8 -9.7 22.9 -11.1 13.3 -2 27.3 2.3 37.1 11.6 6.5 6.1 9.8 11.9 15.2 26.1 2.4 6.6 6.2 14.3 9.5 19.1 9.2 14 14.3 25.8 14.6 34.3 0.1 2 0.5 0 0.9 -4.4 0.8 -9.4 3.2 -14.6 9.6 -21.5 6.3 -6.7 12.8 -9.4 22.9 -9.4 9.8 0 15.2 2.1 22.6 9.1 5.4 5 8 9.3 9.8 15.8 0.7 2.5 3 6 6.3 9.5 11.6 12.1 15.8 21.4 16.6 36.8 0.5 10.1 0.5 10.2 3.1 10.8 1.4 0.3 3.3 0.8 4.2 1 1.1 0.3 0.6 -1.4 -2 -6.7 -3.2 -6.4 -3.6 -8.1 -3.9 -17.1 -0.7 -16.4 4.2 -27.4 16.6 -37.5 10.3 -8.4 26.8 -10.6 40.5 -5.3 12.6 4.8 23.6 19.1 25.6 33.3 2 13.9 -1.8 27.1 -10.4 36.7 -2.3 2.6 -3.5 5.2 -4.4 10 -2.9 14.9 -12.8 28.8 -24.9 34.9 -8.9 4.5 -15.5 5.4 -32.5 4.6 -15.8 -0.7 -17.1 -0.5 -22 4.6 -2.1 2.3 -1.6 2.3 4.7 0.4 7.4 -2.3 22.8 -2 31.2 0.6 8.3 2.5 12.4 4.8 23.9 13.3 8.3 6.3 11.5 7.8 11.5 5.6 0 -3.7 4.9 -12.8 9.5 -17.9 9.9 -10.6 24.1 -15.6 37.6 -13.3 34.7 6 47.8 49.5 22.6 74.7 -10.4 10.3 -23.8 14.1 -39.4 11.1 -6.9 -1.3 -9.9 -1.5 -13.3 -0.7 -6.5 1.5 -17.7 1.3 -24.5 -0.4 -3.3 -0.8 -11.8 -4.5 -18.9 -8.1 -7.1 -3.5 -13 -6.3 -13.2 -6.1 -0.2 0.1 -0.1 1.2 0.2 2.4 0.4 1.5 2.3 2.7 6.6 4.1 9.2 3.2 16.2 7.9 24.3 16.5 5.1 5.2 8.1 7.7 9.7 7.7 4.5 0 14.2 5.6 19 10.9 6 6.7 8.2 13.1 7.6 22 -0.9 12.4 -7.2 21.8 -17.9 26.6 -5.5 2.4 -7.1 2.7 -14.3 2.3 -6.2 -0.3 -9.3 -1.1 -13.4 -3.1 -3 -1.5 -5.5 -2.7 -5.6 -2.7 -0.2 0 -0.6 3.6 -0.9 8 -1.4 18.4 -8.2 41 -18.4 61.4 l-5.5 10.9 6.5 -0.5 c5.3 -0.5 9.7 -2.1 26.3 -9.6 51.9 -23.5 84.3 -37.5 88.1 -38 5.2 -0.6 9.6 1.1 12 4.7 1.7 2.4 1.8 7.8 2.3 85.6 l0.5 83 5 0.3 c9.5 0.5 37.3 3.2 38.8 3.8 1.9 0.7 2.6 3.4 1.6 6 -0.6 1.8 -2.1 2.2 -13.2 3.3 -6.8 0.6 -17 1.4 -22.6 1.8 l-10.1 0.6 0 4.5 c0 9.9 -4.8 15.1 -21.7 23.6 -5.1 2.5 -9.3 4.8 -9.3 4.9 0 0.2 3 2.3 6.6 4.7 9.5 6.3 11.4 9.5 11.4 19.5 -0.1 14.8 -1.7 28.2 -3.7 31.7 -1.4 2.4 -5.1 4.9 -15.3 10.4 -16.2 8.7 -20.4 10.1 -25.4 8.4 -3.9 -1.3 -23.2 -14.3 -28.5 -19.3 -5.1 -4.8 -6 -8 -5.4 -17.6 l0.6 -8.3 -9.4 4.7 c-5.1 2.6 -11.2 5.4 -13.4 6.2 -2.2 0.8 -16.1 3 -31 4.9 -14.8 1.9 -27 3.6 -27.2 3.8 -0.2 0.1 2.7 0.8 6.5 1.5 12.3 2.3 74.6 16.1 81.2 18.1 10.2 3 14 8.1 14 18.7 0 6.9 -2.9 13.4 -7.3 16.5 -5.6 4 -11.4 3.6 -40.2 -3 -14.3 -3.3 -33.8 -7.7 -43.4 -9.7 -20.8 -4.4 -26.4 -6.3 -33.5 -11 -21.1 -14 -22.8 -24.3 -4.3 -27 2.6 -0.4 4.6 -0.9 4.3 -1.2 -0.2 -0.2 -8.4 0.7 -18.2 2.1 -9.9 1.4 -32.2 4.4 -49.7 6.6 l-31.7 4 -11.8 -1.6 c-6.4 -0.8 -15.6 -2.1 -20.4 -2.8 -4.9 -0.7 -8.8 -1.1 -8.8 -0.9 0 0.2 1.8 3.1 4.1 6.5 6.6 9.7 6.5 12.5 -1.8 31.3 -5.1 11.9 -6.1 12.7 -18.8 14.9 -12.8 2.3 -22.2 2.1 -26.3 -0.4z m29.2 -3.5 c3.7 -0.8 7.4 -1.9 8.1 -2.5 1.8 -1.5 10.3 -21.9 11 -26.5 0.6 -3.6 0.1 -4.8 -5.4 -13.5 -7.3 -11.6 -8.2 -11.1 16.5 -7.6 21.8 3.2 26.4 3.2 49.5 0.2 10.1 -1.4 48.1 -6.3 84.4 -11 36.3 -4.8 68 -9.4 70.5 -10.3 2.5 -0.8 9.2 -4 14.9 -6.9 5.7 -2.9 10.8 -5.1 11.2 -4.8 0.4 0.2 0.5 5.3 0.2 11.3 l-0.6 10.8 4.1 4.5 c4.7 5 23.9 18.6 28 19.7 1.5 0.4 4.2 0.4 6 -0.1 4 -1.1 27 -13.3 29.4 -15.7 2.3 -2.1 3.5 -9.4 4.3 -25.1 0.6 -12 0.6 -12.6 -1.7 -15.9 -1.3 -1.9 -5.7 -5.9 -9.8 -8.8 -4.1 -2.9 -7.5 -5.8 -7.5 -6.5 0 -0.6 4.7 -3.7 10.5 -6.7 20 -10.6 20.6 -11.1 21.7 -21.6 l0.8 -6.9 21.5 -1.8 c11.8 -1 22.1 -2 22.9 -2.3 3.6 -1.4 -1.8 -2.5 -19.4 -3.9 -10.4 -0.9 -20.5 -1.9 -22.2 -2.2 l-3.3 -0.5 0 -82.5 c0 -90.6 0.3 -86.8 -6 -89.4 -4.2 -1.7 -5.7 -1.2 -34.5 11.6 -13.2 5.9 -28 12.4 -32.8 14.5 -4.8 2.2 -16.8 7.6 -26.5 12 -16.7 7.7 -18.2 8.2 -26.7 8.9 -4.9 0.4 -9.3 0.4 -9.7 0.1 -0.4 -0.4 2.6 -7.2 6.6 -15.3 11.2 -22.4 16.9 -42.3 18.2 -64.1 l0.7 -10.7 3.1 2.4 c13.7 10.4 29 10.1 40.2 -0.8 9 -8.8 10.7 -20.7 4.7 -32.6 -3.7 -7 -9.5 -11.5 -18.9 -14.2 -6.3 -1.9 -7.8 -2.8 -10 -6 -3 -4.2 -11.8 -11.8 -17.9 -15.3 -2.2 -1.3 -6.6 -3.1 -9.7 -4 -5.5 -1.6 -5.8 -1.8 -7.6 -6.8 l-2 -5.2 3.1 -0.3 c2.3 -0.3 6.7 1.4 16.2 6.2 18.5 9.3 28.9 11.3 43 8.2 4.8 -1 6.8 -1 9.6 -0.1 18 6.3 39.5 -2.6 47.9 -19.9 10 -20.7 2 -45.6 -18 -55.4 -7 -3.4 -18.9 -4.2 -27.3 -1.8 -12.1 3.5 -23.3 14.3 -26.1 25.2 -1 4.2 -1.6 4.9 -3.9 5.2 -3.3 0.4 -5.3 -0.7 -14.7 -7.8 -14.3 -10.9 -24.8 -14.6 -39 -13.8 -4.8 0.3 -11.8 1.5 -15.8 2.8 -4 1.3 -7.5 2 -7.8 1.7 -1.2 -1.2 3.2 -8.1 6.9 -11.1 l3.9 -3.1 19.1 0 c17.6 0 19.7 -0.2 24.7 -2.2 14.9 -6.1 24.8 -18.8 28.2 -36.3 0.8 -3.9 2.2 -6.8 5 -10.2 2.1 -2.5 5.1 -7.2 6.6 -10.5 2.4 -5.3 2.7 -6.9 2.7 -17.3 0 -10.8 -0.2 -11.9 -3 -17.4 -4.2 -8.3 -11 -15 -19.2 -18.9 -6.1 -2.9 -7.7 -3.2 -15.8 -3.2 -7.6 0 -9.9 0.4 -14.8 2.7 -7.8 3.7 -16 11.7 -19.8 19.4 -6.2 12.5 -4.9 28.9 3.3 41.5 2.1 3.4 3.7 6.3 3.5 6.6 -0.3 0.2 -4.5 -0.4 -9.3 -1.4 l-8.8 -1.9 0.2 -8.5 c0.5 -15.2 -3.6 -25 -16 -38.5 -3.8 -4.1 -6.8 -8.3 -6.8 -9.4 0 -3.4 -3.8 -10.4 -8.2 -14.9 -11.7 -12.3 -30.8 -12.3 -42.7 -0.1 -5.8 6 -8.4 13.5 -7.9 23 0.6 9.2 2.8 13.8 9.6 20.2 5.3 5 10 6.8 21.7 8.4 5.3 0.8 6.1 1.2 6.9 3.7 1.4 3.8 0.4 4.4 -10.8 7.8 -5.2 1.5 -12.1 4.1 -15.3 5.6 -6.9 3.4 -16 11.6 -20.4 18.4 -2.9 4.5 -3.5 5 -5.8 4.3 -1.4 -0.4 -5.1 -1.2 -8.1 -1.8 l-5.5 -1.2 0.3 -5.4 c0.4 -6.6 2.6 -11.9 8.5 -20.2 8.9 -12.5 11.7 -20.5 11.7 -33.3 0 -13.5 -3.5 -23.2 -13.9 -38.5 -3 -4.4 -7 -12.4 -9.8 -19.5 -7.9 -20.3 -13.5 -27.4 -26 -33.3 -5.2 -2.4 -6.9 -2.7 -16.8 -2.7 -10.2 0 -11.5 0.2 -17.5 3.1 -31.1 14.8 -30 59.7 1.8 74.7 6.4 3 7.3 3.2 18.9 3.2 14 0.1 15.2 0.7 15.3 8.1 0 3.7 -0.8 4.9 -9.1 14.5 -5.1 5.7 -10.7 12.8 -12.6 15.7 -1.8 2.8 -3.8 5.2 -4.2 5.2 -0.5 0 -2.6 -2.3 -4.7 -5.1 -2.9 -4 -4 -6.6 -4.6 -11.3 -1.6 -11.7 -7.8 -20.5 -17.6 -24.8 -5.6 -2.5 -17.7 -2.2 -23.5 0.6 -5.8 2.9 -12.4 10 -14.4 15.7 l-1.8 4.9 -9.7 0 c-11.4 0 -11 0.6 -7.3 -10.4 8.6 -25.7 -6.4 -51.5 -32.5 -55.7 -16.5 -2.6 -34.4 7 -42.1 22.6 -5.2 10.6 -5.7 21.6 -1.5 33.3 2.1 5.8 4.6 9.4 12.6 17.7 3.7 3.9 7.9 8.8 9.4 11 1.4 2.2 5.1 6.5 8.1 9.6 l5.5 5.5 -7.7 1.3 c-10.4 1.7 -18.8 4.4 -30.6 9.8 -5.5 2.4 -12.1 4.9 -14.8 5.5 -4.8 1.1 -5 1.1 -15.1 -4.1 -8.6 -4.3 -11.5 -5.3 -17.3 -5.8 -17.4 -1.4 -33.4 7.9 -40.9 23.7 -2.9 6 -3.1 7.3 -3.1 17.5 0 10.3 0.2 11.4 3.2 17.7 8.9 18.8 30 28 50.1 21.9 7.4 -2.2 15.7 -7.7 22.7 -15 4.1 -4.3 6.5 -5.2 6.5 -2.5 0 3.4 8.3 17.3 15 25 l6.9 8.1 -8.3 1.1 c-9.9 1.3 -19.1 4.2 -26.5 8.5 -11.3 6.4 -25.3 22.3 -29.2 33.1 -1.1 3 -2.4 4.3 -6.3 6.3 -6.8 3.4 -14.7 11.2 -17.9 17.5 -7.7 15.2 -4.9 31.9 7.2 43.1 9.9 9.2 21.7 11.8 35 7.8 5.6 -1.7 8.2 -3.2 12.9 -7.6 10.5 -9.7 14.2 -22.3 10.7 -36.5 -1.1 -4.4 -1.6 -9.2 -1.3 -12.7 0.4 -4.9 1 -6.1 4.1 -9 2.8 -2.5 4.6 -3.3 7.3 -3.3 l3.7 0 -0.6 3.8 c-0.3 2 -1.3 8.2 -2.1 13.7 -4.9 31.1 1.6 66.8 18.1 99.4 4 8 7.3 14.6 7.3 14.9 0 0.2 -3.9 0.2 -8.7 0 -8.1 -0.5 -9.9 -1 -22.3 -6.6 -41.3 -18.5 -92.5 -40.4 -95.3 -40.8 -4.3 -0.6 -7.8 1.4 -9.9 5.6 -1.7 3.2 -1.8 9.4 -1.8 85.2 0 50.7 -0.4 81.9 -1 82.3 -0.5 0.3 -10 1.2 -21.2 2 -18.2 1.4 -23.3 2.3 -21.6 4 0.3 0.4 10.2 1.5 21.9 2.5 11.8 1 21.5 1.9 21.7 1.9 0.1 0.1 0.2 2.4 0.2 5.2 0 6.2 2.1 11 6.4 14.2 1.7 1.4 8.2 5 14.3 8 6.1 3.1 11.4 6 11.7 6.5 0.3 0.4 -3.6 3.3 -8.7 6.3 -16.3 9.6 -19.7 14.5 -14.7 20.9 3.1 4 2.6 9.1 -1.4 13.8 -3.2 3.9 -3.3 4.4 -4 15.6 -1 15.6 1 22.7 7.4 26.9 1.4 0.9 20.1 5.9 41.5 11.2 44.6 11 65 15.5 70 15.5 4.1 0 10.7 -3.2 28.9 -13.9 7.2 -4.3 18.5 -10.9 25.1 -14.8 6.6 -3.9 12.8 -8 13.9 -9.2 2.5 -2.7 1.7 -8.3 -1.8 -13.5 -2.8 -4.2 -3.4 -8.4 -1.3 -9.2 1.5 -0.5 20.6 2.2 21.5 3.1 0.3 0.3 -0.6 1.8 -2 3.3 -5.6 5.9 -12.4 23 -11.5 29.2 0.9 6.6 12.8 24.3 17.7 26.4 2.3 0.9 17.6 -0.2 25.4 -1.9z m268.4 -6.5 c8.8 -5.4 9.4 -21.2 1.1 -27.3 -2.8 -2 -18.1 -5.8 -65.1 -16.2 l-30.7 -6.8 -14.5 2.7 c-15.3 2.9 -18.6 4.3 -18.6 8 0 2.8 8.2 10.8 16.3 16 6.4 4.1 11.7 5.6 43.7 12.6 12.9 2.8 30.9 6.8 40 8.9 19.1 4.6 23.2 4.9 27.8 2.1z m-310.3 -49.5 c-7.2 -1.2 -7.9 -0.4 -4.1 5.2 1.6 2.2 2.6 5.2 2.6 7.3 0.1 3.3 0.3 3.1 3.8 -4 l3.7 -7.5 -6 -1z m147.8 -497 c3.8 -6 12.1 -13.4 19.3 -17.2 3.3 -1.8 10.5 -4.5 16 -6.1 5.4 -1.5 9.8 -3.2 9.7 -3.8 -0.1 -0.5 -3.6 -1.4 -7.7 -2.1 -15.7 -2.4 -25.3 -9.9 -29.1 -22.6 l-1.2 -4.2 -0.8 6.5 c-1.1 10.1 -4.7 19.1 -12 29.9 -6.6 9.9 -8.5 14.2 -8.5 19.3 0 2.3 0.5 2.8 4.3 3.6 6.7 1.5 7.1 1.4 10 -3.3z"/>
  <path d="M440 842.3 c0.5 -1.6 1.9 -5.5 3.2 -8.8 l2.4 -6 9.3 -1.3 c5.1 -0.7 9.5 -1.1 9.7 -0.9 0.3 0.3 -1.1 4.2 -3 8.8 l-3.4 8.4 -6.4 1.1 c-3.4 0.7 -7.7 1.2 -9.5 1.3 -3 0.1 -3.1 0 -2.3 -2.6z"/>
  <path d="M327.1 839.9 c-5.4 -1 -6.7 -2.1 -8.2 -6.6 -1.3 -4 -0.7 -12.9 1.1 -16.3 1.1 -2 1.7 -2.2 6.3 -1.6 2.8 0.4 5.4 0.9 5.7 1.1 0.3 0.2 0.2 3.2 -0.4 6.5 -0.8 4.9 -0.7 7.4 0.5 12.1 1.1 3.9 1.2 5.9 0.5 5.8 -0.6 -0.1 -3.1 -0.5 -5.5 -1z"/>
  <path d="M341.2 838.5 c-1.5 -3.3 -1.5 -15.7 0 -18.9 0.8 -1.9 6.7 -5.7 21.2 -13.7 11.1 -6.2 22 -12.2 24.3 -13.5 4.8 -2.8 6.3 -3 6.3 -0.9 0 1.7 -3.3 3.9 -21 14 -17.5 10.1 -24.7 14.8 -23.2 15.3 1.6 0.5 13 -5 30.6 -14.6 7.1 -3.9 13.3 -6.9 13.7 -6.6 2 1.2 -1.3 4 -12.5 10.6 -31.1 18.2 -33.6 22.6 -4 7.3 12.3 -6.5 18.9 -9.4 19.6 -8.7 1.1 1.1 -2.2 3.1 -31.7 20.4 -9.9 5.8 -18.9 10.9 -20.1 11.2 -1.6 0.5 -2.3 0 -3.2 -1.9z"/>
  <path d="M428.6 834.4 c-2.5 -3.8 -4.6 -7.8 -4.6 -8.9 0 -1.1 1.4 -4.9 3 -8.4 l3.1 -6.5 4.4 6.7 c2.5 3.6 4.5 7.2 4.4 7.9 0 0.7 -1.3 4.6 -2.8 8.7 l-2.8 7.5 -4.7 -7z"/>
  <path d="M280 829.2 l-27.5 -6.7 -1.2 -3.5 c-1.7 -4.9 -1.6 -9.3 0.3 -14 0.9 -2.2 1.8 -4 1.9 -4 2.4 0 52 10 57.6 11.6 1.5 0.4 1.6 0.9 0.2 5.2 -1 3.1 -1.3 7 -0.9 11.5 0.4 5.8 0.3 6.7 -1.2 6.6 -0.9 0 -14.1 -3.1 -29.2 -6.7z"/>
  <path d="M440 813.3 l-5.2 -7.8 8.8 -0.3 c4.8 -0.2 9.3 -0.1 10 0.2 1.4 0.6 9.4 11.1 9.4 12.4 0 0.5 -3.3 1.2 -7.2 1.6 -4 0.4 -8 0.9 -9 1.2 -1.1 0.3 -3.1 -1.7 -6.8 -7.3z"/>
  <path d="M237.3 819 c-3.3 -1.3 -4.7 -4.8 -4.6 -11.7 0.1 -7.1 1.4 -9.5 4.9 -8.8 7.9 1.6 7.4 1.3 6.4 4.1 -0.6 1.4 -1 5.9 -1 10 0 8 -0.5 8.5 -5.7 6.4z"/>
  <path d="M743.6 800.5 c-3.2 -2.5 -6.2 -4.7 -6.5 -5.1 -0.9 -0.9 11.2 0.6 12.2 1.6 0.5 0.4 0.7 2.3 0.5 4.3 l-0.3 3.6 -5.9 -4.4z"/>
  <path d="M756 801 l0 -4 6.7 0 c7.4 0 7.4 0.3 -0.9 4.8 l-5.8 3.2 0 -4z"/>
  <path d="M308 800.9 c-74.7 -10.4 -71.8 -9.8 -70.4 -12 0.8 -1.4 13.3 -0.7 29.4 1.5 29.4 4.1 42.9 5.1 40.9 3.2 -1.5 -1.6 -38.4 -7.7 -60.7 -10.1 -6.1 -0.7 -8.3 -1.8 -6.6 -3.5 1 -1 20 0.7 48.9 4.4 27.5 3.4 39.4 4.2 37.8 2.6 -0.7 -0.8 -5 -1.9 -9.5 -2.7 -16 -2.5 -51.2 -7.4 -63.5 -8.8 -11.8 -1.3 -16.4 -2.8 -14.5 -4.7 0.8 -0.8 26.9 2 69.1 7.6 28.1 3.7 28.3 3.7 29.7 11.3 0.7 3.5 -0.9 10.7 -2.8 13.1 -1.4 1.6 -3.9 1.5 -27.8 -1.9z"/>
  <path d="M346 793.3 c-0.1 -3.2 -0.7 -7.5 -1.4 -9.5 -1.3 -3.7 -1.3 -3.8 2.1 -6.4 4.7 -3.5 5.7 -2.3 6.1 7.5 0.4 7.2 0.2 7.9 -2.3 10.9 -1.5 1.8 -3.1 3.2 -3.6 3.2 -0.5 0 -0.9 -2.6 -0.9 -5.7z"/>
  <path d="M365.1 795.2 c0.6 -1.9 20 -16.2 21.8 -16.1 0.9 0.1 2.7 0.4 4.1 0.8 2.3 0.6 2.1 0.9 -3 3.8 -14.8 8.2 -23.2 12.5 -22.9 11.5z"/>
  <path d="M489.5 790.4 c-8.8 -1.3 -30.2 -4.2 -47.5 -6.5 -30.6 -4.1 -31.6 -4.3 -34.1 -6.9 -1.4 -1.5 -4.7 -3.7 -7.3 -4.9 -4.2 -1.8 -4.7 -2.3 -4.1 -4.3 0.4 -1.3 1 -2.6 1.4 -2.9 0.6 -0.6 29.3 3 64.6 8.2 31.7 4.6 30 4.6 31.9 1.7 1.4 -2.2 1.6 -5.8 1.4 -26.3 -0.2 -16.2 -0.7 -24 -1.4 -24.2 -0.6 -0.2 -3.5 4.8 -6.4 11.2 -3 6.3 -5.6 11.5 -5.9 11.5 -0.3 -0.1 -3.2 -0.7 -6.4 -1.5 -8.6 -2 -8.9 -1.7 -8.1 7.5 l0.6 7.8 -6.7 2.2 c-5.1 1.7 -8 2.1 -11.9 1.6 -33.8 -4 -51 -6.6 -51.7 -7.8 -0.5 -0.7 -0.9 -2.4 -0.9 -3.7 0 -3.6 -3.7 -10.7 -6.6 -12.6 -1.5 -1 -6.5 -2.1 -12.2 -2.7 -5.3 -0.5 -10.2 -1.4 -10.9 -2 -0.7 -0.5 -1.9 -3.3 -2.9 -6.1 -5.7 -17.8 -8.4 -19.3 -8.4 -4.6 l0 10 -5.7 -0.7 c-3.2 -0.3 -6.1 -0.8 -6.5 -1.1 -0.5 -0.2 -0.8 -33.7 -0.8 -74.4 l0 -74 4.3 0.5 c2.3 0.3 14.8 1.3 27.7 2.1 12.9 0.8 33.6 2.2 46 3 35.6 2.3 80.2 5.6 83.8 6.1 l3.2 0.5 0 97.9 c0 77.8 -0.3 98 -1.2 97.9 -0.7 -0.1 -8.5 -1.2 -17.3 -2.5z m-38.7 -40 c3.4 -2.2 2.7 -5 -2 -8 -4 -2.5 -4.1 -2.7 -2 -3.5 2.6 -1 2.9 -4.5 0.5 -5.1 -3.4 -0.9 -8.3 1.2 -9.3 3.8 -1.1 2.8 -0.8 3.7 2.4 7.3 1.5 1.7 1.7 2.5 0.9 2.8 -1.9 0.7 -1.6 3 0.5 4.2 2 1.1 5.7 0.5 9 -1.5z m-42.4 0 c2.6 -1 2 -4.4 -0.8 -4.4 -1.4 0 -2.8 -0.5 -3.1 -1.1 -0.5 -0.7 0.4 -0.8 2.8 -0.4 2.9 0.6 3.7 0.3 4.6 -1.3 0.6 -1.2 1.1 -3.4 1.1 -5.1 0 -3.5 -3.5 -6.4 -7.2 -5.9 -2.9 0.4 -3.8 4.4 -1.1 5.2 1 0.3 0.6 0.4 -0.9 0.2 -3.7 -0.4 -6 2.3 -5.6 6.6 0.2 2.6 1 3.6 3.8 5 3.9 2 4.2 2.1 6.4 1.2z m32 -22.9 c7.3 -4.2 16.1 -9.4 19.7 -11.8 l6.4 -4.2 0.3 -22.9 c0.2 -15.9 -0.1 -23.3 -0.9 -24.2 -1.3 -1.6 -26.8 -16.8 -34.7 -20.8 -6.6 -3.3 -7 -3.2 -23 6.2 -6.4 3.8 -14.2 8.3 -17.3 10 -3.2 1.8 -6 3.9 -6.3 4.8 -0.3 0.9 -0.6 11.1 -0.6 22.8 0 20 0.1 21.5 2.1 24 1.1 1.4 7.5 5.8 14.2 9.8 6.7 3.9 14.7 8.6 17.7 10.4 3 1.9 6.3 3.4 7.3 3.4 1 0 7.8 -3.4 15.1 -7.5z m40.7 1.4 c1.5 -1.5 2 -3 1.7 -5.1 -0.3 -1.9 0 -3.2 0.9 -3.5 1.4 -0.6 4.3 -5.4 4.3 -7.2 0 -0.6 -1.8 -1.6 -4.1 -2.2 -2.2 -0.7 -4.5 -2.1 -5 -3.1 -1.4 -2.7 -3.6 -2.2 -5.4 1.2 -0.8 1.6 -1.5 3.1 -1.5 3.3 0 0.2 2 1.2 4.5 2.1 2.5 1 4.5 2.2 4.5 2.7 0 1.2 -0.5 1.1 -5.1 -0.3 -6.8 -2 -12.2 2.7 -9.9 8.6 2 5.3 11.2 7.4 15.1 3.5z m-105.1 -2.9 c0 -0.5 1.7 -0.8 3.7 -0.7 3.2 0.2 3.8 -0.2 4.7 -2.6 0.8 -2.2 0.7 -3.5 -0.5 -5.5 -1.9 -3.4 -4.1 -3.5 -4.9 -0.2 -0.5 2.1 -0.7 2.2 -1.3 0.8 -1.1 -3 -4.7 -2.2 -5.3 1.1 -0.4 1.7 -1.2 3.2 -2 3.5 -2 0.8 -1.7 4.3 0.3 5.5 1.9 1 5.3 -0.2 5.3 -1.9z m1.4 -34.6 c0.3 -0.9 0.6 -4.2 0.6 -7.4 0 -6.5 -1.8 -9.2 -4.8 -7.3 -1.3 0.7 -2.1 0.7 -3 -0.3 -1.7 -1.9 -6.2 -1.8 -9 0.2 -1.8 1.3 -2.2 2.4 -2.1 5.8 0.2 2.3 -0.1 4.7 -0.5 5.4 -0.4 0.6 0.2 2 1.4 3.2 1.6 1.6 3.3 2 9.4 2 5.8 0 7.5 -0.3 8 -1.6z m101.3 -0.4 c0.5 -1.7 0.7 -1.7 2 -0.5 2.4 2.4 5.9 1.8 8.7 -1.6 3.2 -3.8 3.3 -7.3 0.2 -10.4 -2 -2 -3.3 -2.3 -9.5 -2.3 l-7.1 0.1 0 8.3 c0 8.4 0 8.4 2.6 8.4 1.7 0 2.8 -0.6 3.1 -2z m16.8 -35.3 c0.4 -1.8 0.5 -12.4 0.3 -23.5 -0.4 -23.6 -0.2 -23.2 -9.9 -23.9 -3.5 -0.2 -31.6 -2.2 -62.3 -4.3 -30.8 -2.2 -57.9 -4 -60.2 -4 -7.2 0 -7.4 0.7 -7.4 27.8 0 21.5 0.1 23.3 1.7 23 1.1 -0.2 3.4 -4 6.3 -10.5 2.5 -5.6 4.8 -10.5 5.1 -10.8 0.4 -0.3 3.5 0.1 6.9 1 3.4 0.9 6.9 1.4 7.6 1.1 1.8 -0.7 1.8 -4.8 0 -10.8 -1.8 -5.6 -1.8 -5.5 8.6 -9.3 l7.7 -2.7 26.5 2 26.5 2.1 8.1 4.1 8.2 4.1 -0.7 5.6 c-0.4 3.1 -0.9 6.2 -1.1 6.8 -0.3 0.7 0.2 2 1.1 2.9 1.3 1.3 2.6 1.5 5.3 0.9 9.2 -1.8 9.2 -1.8 13.2 8.9 5.1 13.3 7.3 15.8 8.5 9.5z m-35.7 -7.9 c0.2 -1.2 -0.8 -2.2 -3 -3.2 l-3.3 -1.5 3.6 0.5 c2.6 0.4 4.1 0.1 5.2 -1.1 3.7 -3.6 0.6 -9.2 -5.5 -10.2 -3.4 -0.5 -3.8 -0.3 -3.8 1.5 0 1.3 1 2.4 2.8 3.1 2.5 1 2.4 1.1 -1.1 0.5 -4.8 -0.7 -6.7 0.8 -6.7 5.1 0 4.5 3.8 7.6 9 7.2 1.5 -0.1 2.6 -0.9 2.8 -1.9z m-61.4 0 c5.1 -2.3 4.4 -5.6 -2 -9.4 -1.6 -1 -1.7 -1.3 -0.5 -2.7 3.1 -3.8 -1.3 -6.2 -5.7 -3.1 -3.1 2.2 -2.8 5.7 0.9 8.8 1.7 1.4 2.7 3.1 2.4 3.6 -0.8 1.4 0.1 4 1.4 4 0.6 0 2.1 -0.5 3.5 -1.2z m39.4 -14.3 c0.2 -2.2 -0.4 -3.7 -2.3 -5.5 -2.7 -2.5 -3.3 -4.2 -1.2 -3.5 1.9 0.7 3.9 -1 3.5 -3.1 -0.2 -1.5 -1.3 -2 -5 -2.2 -3.9 -0.3 -4.9 0 -5.8 1.8 l-1.1 2.1 -1.7 -2.1 c-0.9 -1.1 -3.1 -2.3 -4.9 -2.6 -2.6 -0.5 -3.7 -0.1 -5.9 2.1 -2.3 2.3 -2.6 3.2 -2.1 7.3 0.8 7.2 6.2 10.3 11.5 6.6 1.3 -0.9 2.2 -1.1 2.2 -0.4 0 1.6 4 2.9 8.5 2.7 3.7 -0.2 4 -0.5 4.3 -3.2z"/>
  <path d="M419.4 718.3 c-2.8 -3.8 -6 -8.3 -7.3 -10 l-2.2 -3.3 15.6 0 15.7 0 -3.8 5.3 c-8.2 11.4 -10.9 14.7 -11.9 14.7 -0.6 0 -3.4 -3 -6.1 -6.7z"/>
  <path d="M439.5 718.9 c0.7 -1.1 7.5 -10.7 9.1 -12.7 0.3 -0.5 6.4 2.7 6.4 3.3 0 0.3 -3 2.4 -6.7 4.8 -10 6.3 -9.7 6.2 -8.8 4.6z"/>
  <path d="M404.1 715.1 c-7.6 -5.6 -7.8 -5.8 -5.5 -7.6 1 -0.8 2.2 -1.5 2.5 -1.5 0.6 0 7.4 8.7 9.3 11.8 1.3 2.1 -0.7 1.3 -6.3 -2.7z"/>
  <path d="M391 693.3 c0 -5.3 0.2 -9.4 0.4 -9.2 0.2 0.2 1.8 3.8 3.5 7.9 l3.2 7.4 -2.3 1.8 c-4.3 3.3 -4.8 2.5 -4.8 -7.9z"/>
  <path d="M455.1 701.1 l-2.3 -1.8 2.9 -6.7 3 -6.8 0.6 3.9 c0.4 2.1 0.7 5.9 0.7 8.6 0 5.2 -1 5.8 -4.9 2.8z"/>
  <path d="M409 697.5 c0 -1.1 15.9 -27.6 16.5 -27.6 0.6 0 16.5 26.5 16.5 27.6 0 0.3 -7.4 0.5 -16.5 0.5 -9.1 0 -16.5 -0.2 -16.5 -0.5z"/>
  <path d="M398 681.8 c-2.5 -6.1 -4.6 -11.5 -4.8 -11.8 -0.3 -0.8 23.7 -3.5 24.4 -2.7 0.3 0.3 -1.2 3.3 -3.4 6.8 -2.1 3.5 -5.4 9.2 -7.2 12.7 -1.9 3.4 -3.7 6.2 -4 6.2 -0.3 0 -2.6 -5 -5 -11.2z"/>
  <path d="M442.2 683.8 c-7.3 -12.2 -9.5 -16.8 -8 -16.8 5.6 0 22.8 2.5 22.8 3.4 0 1.7 -8.4 21.6 -9.2 21.6 -0.4 0 -2.9 -3.7 -5.6 -8.2z"/>
  <path d="M412.2 656 c4.8 -2.7 9 -5 9.3 -5 1.1 0 0.4 8.1 -0.7 8.5 -0.7 0.2 -4.9 0.6 -9.3 1 l-8 0.6 8.7 -5.1z"/>
  <path d="M434 660.1 c-4.4 -0.6 -4.5 -0.7 -4.8 -4.3 -0.2 -2.1 0.1 -3.8 0.6 -3.8 1 0 13.7 7.2 14.9 8.4 0.7 0.7 -4.3 0.6 -10.7 -0.3z"/>
  <path d="M472.4 724.6 c-1.4 -1.1 -1.6 -1.8 -0.8 -2.6 1.5 -1.5 5.4 0.4 5.4 2.5 0 1.9 -2.1 1.9 -4.6 0.1z"/>
  <path d="M369.2 683.4 c-0.7 -0.8 -2.2 -1.4 -3.2 -1.4 -1.1 0 -2 -0.4 -2 -1 0 -1.7 7 -1.2 7.7 0.6 0.8 2.2 -0.9 3.5 -2.5 1.8z"/>
  <path d="M483 683 c0 -1.1 0.7 -2 1.5 -2 0.8 0 1.5 0.9 1.5 2 0 1.1 -0.7 2 -1.5 2 -0.8 0 -1.5 -0.9 -1.5 -2z"/>
  <path d="M486.9 631.6 c-1.3 -1.7 -2.6 -2 -7.1 -1.8 l-5.4 0.2 0.4 -5.8 c0.4 -5.5 0.2 -6 -2.4 -8.2 l-2.9 -2.3 9.4 0.6 c5.1 0.3 9.5 0.8 9.7 1 0.3 0.3 0.3 4.5 0.2 9.4 -0.3 8.5 -0.4 8.9 -1.9 6.9z"/>
  <path d="M362.2 617 c0.2 -5.4 0.6 -10.1 0.9 -10.4 0.7 -0.8 19.9 0.5 19.9 1.3 0 0.3 -1.5 1.3 -3.3 2.1 -3.1 1.5 -3.2 1.6 -3 7.6 l0.1 6.2 -5.8 -0.5 c-5.3 -0.5 -5.8 -0.4 -6.5 1.6 -0.3 1.1 -1.1 2.1 -1.7 2.1 -0.7 0 -0.9 -3.4 -0.6 -10z"/>
  <path d="M425.7 629.1 c0.3 -1.4 0.6 -2.7 0.7 -2.8 0.1 0 0.9 0.9 1.8 2.2 1.7 2.2 1.7 2.3 -0.7 2.7 -2.2 0.5 -2.4 0.3 -1.8 -2.1z"/>
  <path d="M418 626.4 c0 -1.4 0.4 -2.3 1 -1.9 0.6 0.3 1 1.5 1 2.6 0 1 -0.4 1.9 -1 1.9 -0.5 0 -1 -1.2 -1 -2.6z"/>
  <path d="M517.2 694.7 l0.3 -98.2 5.5 -0.3 c3 -0.1 24.9 -1.6 48.5 -3.2 57.4 -3.9 86.8 -5.9 99.2 -6.7 l10.3 -0.6 -0.2 92.9 -0.3 92.9 -24.5 3.1 c-40.8 5.3 -133.3 17.4 -136.3 17.9 l-2.7 0.5 0.2 -98.3z m34.3 79.7 c7.2 -0.8 13.9 -1.9 15 -2.3 1.4 -0.6 2.4 -2.6 3.4 -6.7 2.3 -10.2 5.4 -14.7 19.5 -28.7 13.2 -13 15.6 -16.5 15.6 -22.7 0 -0.9 1.8 -3.4 4 -5.5 5.1 -5 6.6 -9.9 5 -16.6 -1.9 -7.7 -3.7 -8.1 -4.2 -1 -0.7 10 -1.8 10.8 -19.3 15 -9.7 2.3 -17.2 9.5 -15.9 15.4 0.5 2.5 0.3 2.7 -2.5 2.7 -4.1 0 -10.9 -2.8 -12.1 -5.1 -1.8 -3.2 -1.1 -4.7 3.6 -7.4 2.6 -1.5 7.7 -5.6 11.5 -9.1 3.8 -3.4 8.5 -6.8 10.4 -7.5 1.9 -0.7 3.5 -1.6 3.5 -2 0 -1.5 -8 -1.8 -13.4 -0.4 -6.8 1.8 -10.3 3.9 -12.7 7.9 -1.5 2.4 -2.5 3 -5.6 3 -3.3 0.1 -4 0.5 -5.3 3.4 -1.5 3.1 -1.7 3.2 -3.2 1.5 -4.2 -4.7 -5.1 -14.8 -1.8 -21.3 2.2 -4.3 4 -5.9 4 -3.6 0 2.5 3.3 1.9 7.8 -1.4 4.7 -3.3 5.7 -5 6.7 -10.3 0.6 -2.9 1.9 -4.8 5.7 -7.9 2.7 -2.4 6.2 -6.7 7.9 -9.9 2 -3.8 6.1 -8.4 12.4 -14.3 6.8 -6.3 10.1 -10.2 12.2 -14.4 l2.8 -5.7 0.3 4.5 c0.5 7.1 -0.4 9.9 -6.3 18.9 -3 4.6 -5.5 9 -5.5 9.7 0 1.8 21.4 -12 26.5 -17.1 2.3 -2.2 5.6 -6.6 7.4 -9.8 1.8 -3.1 3.5 -5.7 3.8 -5.7 0.3 0 0.3 2.7 0 5.9 -0.8 8.8 -4.4 15.8 -13.1 25.1 -7.9 8.4 -9.2 10.7 -5.3 9.6 7.4 -2.1 16.6 -1.6 24.2 1.4 l3 1.2 -2.5 1 c-7.6 3 -11 4.9 -11 6.2 0 0.8 3 2.6 7.3 4.2 6.6 2.6 16.7 10.1 16.7 12.5 0 0.5 -2.7 0.6 -6 0.2 -7.4 -0.7 -7.7 0.4 -1.9 7.3 5.2 6.2 7.7 11.1 8.5 16.6 l0.7 4.3 -2.4 -2.1 c-2.7 -2.4 -6.2 -4.4 -7.8 -4.4 -1.7 0 -1.3 2.9 1.4 12 2.2 7.2 3.5 20 2 20 -0.2 0 -2.2 -1.8 -4.3 -4.1 l-3.8 -4.1 -2.9 7.3 c-3.6 9 -3.9 15.5 -0.9 19.6 1.2 1.5 2.9 3 3.9 3.2 1 0.1 7 -0.2 13.2 -0.9 9.4 -1 12 -1.7 14.1 -3.5 l2.7 -2.3 0.3 -74.5 c0.1 -47.1 -0.1 -75.4 -0.7 -77.1 -0.6 -1.5 -2.1 -2.8 -3.6 -3.2 -1.4 -0.3 -23.4 0.8 -48.8 2.5 -25.4 1.8 -53.8 3.7 -63.2 4.3 -11.1 0.7 -17.8 1.5 -19.2 2.5 l-2.3 1.3 0 80.2 c0 73.2 0.1 80.3 1.7 82 2 2.2 2.5 2.2 18.8 0.2z m35.9 -99.6 c1.5 -1.3 2.9 -3.8 3.2 -5.7 0.7 -3.2 0.6 -3.3 -1.7 -2.6 -5 1.6 -10.9 6.6 -10.9 9.2 0 2.2 6.6 1.6 9.4 -0.9z"/>
  <path d="M764.7 791.3 c-3.2 -0.2 -5.7 -0.8 -5.5 -1.2 0.6 -1.8 9.3 -15 9.8 -15 0.7 0 7.4 14.8 6.9 15.3 -0.8 0.9 -5.6 1.2 -11.2 0.9z"/>
  <path d="M737.6 788.9 c-3.8 -0.5 -7.2 -1.1 -7.4 -1.4 -0.2 -0.2 1.1 -3 2.9 -6.2 5.9 -10.4 5.1 -10.4 9.8 -0.7 2.2 4.7 4.1 8.8 4.1 9 0 0.5 -0.1 0.4 -9.4 -0.7z"/>
  <path d="M360.5 783.3 c-0.3 -2.6 -1.2 -6.5 -2 -8.7 -0.8 -2.1 -1.2 -4.2 -0.9 -4.7 0.9 -1.5 16.7 -12 17.2 -11.4 0.3 0.3 0.9 3.2 1.3 6.5 0.9 6.5 0 10.5 -3 13 -1.1 0.8 -4.2 3.4 -6.9 5.8 l-5.1 4.3 -0.6 -4.8z"/>
  <path d="M748.4 777.7 c-2.7 -5.3 -4.6 -9.8 -4.4 -10 0.4 -0.3 19.8 1.7 20.8 2.2 0.3 0.1 -9.5 14.9 -10.9 16.5 -0.4 0.5 -2.9 -3.4 -5.5 -8.7z"/>
  <path d="M776.2 776.7 c-1.2 -2.8 -2.2 -5.7 -2.2 -6.3 0 -1 3 -2.3 5.3 -2.4 0.4 0 0.7 3.2 0.7 7 0 3.9 -0.3 7 -0.7 7 -0.5 0 -1.8 -2.4 -3.1 -5.3z"/>
  <path d="M728.3 770.5 c0.2 -6.8 0.3 -7 2.7 -6.7 1.3 0.1 2.8 0.6 3.3 1.1 0.9 0.9 -1.8 6.9 -4.7 10.6 -1.5 1.9 -1.6 1.5 -1.3 -5z"/>
  <path d="M311.5 771.4 c-10.4 -1.3 -29.2 -3.7 -41.6 -5.4 -12.4 -1.6 -23.7 -3 -25.2 -3 -1.5 0 -2.7 -0.4 -2.7 -1 0 -1.3 4.1 -3.8 26.8 -16.5 l19.3 -10.7 24.2 3.1 c13.3 1.7 32.7 4.2 43 5.5 17.2 2.1 20.8 2.9 19.6 4 -0.2 0.2 -8.8 6.3 -19.1 13.5 -15.4 10.8 -19.3 13.1 -22 13 -1.8 -0.1 -11.8 -1.2 -22.3 -2.5z"/>
  <path d="M383.6 764.5 c-0.4 -3.6 -1.1 -7.6 -1.6 -8.9 -0.7 -1.8 -0.5 -2.8 0.9 -4 1 -0.9 2.3 -1.6 3 -1.6 1.6 0 3.1 4.3 3.1 9 0 4.1 -2.6 12 -4 12 -0.4 0 -1 -2.9 -1.4 -6.5z"/>
  <path d="M478 769.3 c-1.4 -0.2 -4 -0.6 -5.8 -0.9 l-3.3 -0.5 2.9 -2.7 c2.7 -2.5 2.9 -3.2 2.5 -7.9 l-0.5 -5.2 5.6 0.6 c4.6 0.5 6 0.2 7.6 -1.2 2 -1.8 2 -1.7 2 8.3 l0 10.2 -4.2 -0.1 c-2.4 -0.1 -5.4 -0.3 -6.8 -0.6z"/>
  <path d="M690.8 677.8 c0.1 -49.7 0.2 -91.2 0.2 -92.4 0 -1.4 1.3 -2.6 4.8 -4.1 4.8 -2.1 67.6 -30.2 83.5 -37.3 4.8 -2.2 9.4 -4 10.2 -4 1.3 0 1.5 11.6 1.5 88.5 l0 88.4 -2.1 2 c-2 1.8 -96.1 49.1 -97.7 49.1 -0.4 0 -0.6 -40.6 -0.4 -90.2z m50.6 52.1 c18.7 -9.4 35.1 -18.2 36.4 -19.5 l2.2 -2.5 -0.2 -72.1 c-0.3 -85.3 1.3 -77.2 -14.5 -70.3 -34.8 15 -61 26.9 -62 28.3 -1 1.2 -1.3 17.9 -1.3 75.8 0 66.2 0.2 74.4 1.6 75.8 0.8 0.9 2 1.6 2.6 1.6 0.6 0 16.4 -7.7 35.2 -17.1z"/>
  <path d="M708.5 732.7 c-0.3 -3.4 -0.5 -16.1 -0.3 -28.2 l0.3 -22 3.5 -1.7 c3 -1.5 37.1 -17 40.8 -18.5 0.9 -0.4 1.2 1.7 1.2 8.6 l0 9 -5.7 2.8 -5.8 2.8 -0.5 7 -0.5 7 -5 2.6 c-2.7 1.5 -6 3 -7.2 3.4 -2.1 0.6 -2.3 0.3 -2.3 -3.7 0 -5.2 -1.1 -7.1 -3.6 -6.6 -1.7 0.3 -1.9 1.3 -1.9 9.3 0 10.9 0.4 11.1 11.2 6.5 4 -1.6 7.7 -3 8.3 -3 0.7 0 1 2.4 0.8 7.2 l-0.3 7.1 -16.2 8.3 -16.2 8.3 -0.6 -6.2z"/>
  <path d="M748 704.7 c0 -11.5 0.2 -13.6 1.8 -15 1.5 -1.3 21.4 -10.7 22.7 -10.7 0.3 0 0.4 6.2 0.3 13.8 l-0.3 13.7 -11 5.7 c-6 3.2 -11.6 5.8 -12.2 5.8 -1 0 -1.3 -3.3 -1.3 -13.3z"/>
  <path d="M760.6 676.2 c-0.3 -0.3 -0.6 -5.2 -0.6 -10.9 0 -12.4 -0.3 -12.7 -9.8 -8.9 -3.7 1.4 -7.1 2.6 -7.5 2.6 -0.4 0 -0.7 -7 -0.7 -15.6 l0 -15.5 3.4 -7.5 c1.9 -4.1 3.9 -7.4 4.4 -7.4 0.5 0 2.1 2.3 3.7 5.1 2.2 4.2 2.9 6.8 3.3 14 0.5 8.5 0.6 8.9 2.8 8.9 1.3 0 4.6 -0.9 7.4 -2 2.8 -1.1 5.3 -2 5.5 -2 0.3 0 0.5 7.8 0.5 17.3 l0 17.4 -5.9 2.5 c-3.3 1.4 -6.2 2.3 -6.5 2z"/>
  <path d="M708.4 673.6 c-0.3 -0.7 -0.4 -12.3 -0.2 -25.7 l0.3 -24.4 5 -8.3 5 -8.3 3.7 4.3 c6.7 7.7 6.8 8.2 6.8 32.5 l0 21.9 -4.7 2.3 c-12.1 6 -15.3 7.1 -15.9 5.7z"/>
  <path d="M734.8 640.4 c-0.3 -24.7 -0.1 -23.9 -8.9 -34.4 -3.7 -4.5 -5.6 -6 -7.2 -5.8 -1.9 0.3 -5.7 4.5 -9.4 10.4 -1 1.6 -1.2 0.7 -1.2 -5.3 l-0.1 -7.2 7.8 -3.7 c4.2 -2 14.7 -6.7 23.2 -10.4 8.5 -3.8 19.5 -8.7 24.4 -10.9 5 -2.2 9.3 -3.8 9.8 -3.5 0.4 0.3 0.8 13.8 0.8 30 l0 29.5 -3.2 1.3 c-7.5 3.1 -7.8 3 -7.8 -0.6 -0.1 -6 -2 -11.8 -6.1 -18.4 -6.9 -10.9 -9.1 -10.5 -15.3 2.5 l-4.1 8.6 -0.3 19 c-0.2 10.5 -0.7 19.4 -1.2 19.9 -0.5 0.5 -1 -8.6 -1.2 -21z"/>
  <path d="M749.8 762.3 c-2.1 -0.2 -3.8 -0.8 -3.8 -1.2 0 -1.4 8.3 -11.1 9.5 -11.1 0.6 0 2.8 2.9 4.7 6.5 l3.7 6.5 -5.2 -0.2 c-2.9 -0.1 -6.9 -0.3 -8.9 -0.5z"/>
  <path d="M768.2 759.1 c-1.2 -2.1 -2.2 -4.2 -2.2 -4.5 0 -0.8 8.6 5.2 10.2 7.1 0.8 1 0.3 1.3 -2.4 1.3 -2.9 0 -3.7 -0.5 -5.6 -3.9z"/>
  <path d="M734.6 758.7 c-1.6 -1.2 -1.3 -1.5 3.8 -3.4 5.6 -2.1 6 -1.7 2.3 2.5 -2.4 2.5 -3.6 2.7 -6.1 0.9z"/>
  <path d="M249.5 727.6 c-8.2 -4 -15.8 -8 -16.7 -9 -1.7 -1.6 -1.8 -7.3 -1.8 -90.7 0 -48.9 0.2 -88.9 0.5 -88.9 0.5 0 66.6 28.6 79.5 34.4 5.2 2.3 12.5 5.6 16.3 7.2 l6.7 2.8 0 74.3 0 74.3 -2.4 0 c-1.3 0 -3.8 -0.3 -5.5 -0.6 l-3.1 -0.6 0 -67.5 0 -67.4 -2.2 -2.2 c-1.3 -1.3 -9.9 -5.6 -19.3 -9.6 -9.3 -4.1 -25 -10.9 -34.8 -15.2 -9.8 -4.4 -18.4 -7.9 -19.1 -7.9 -0.7 0 -2 0.8 -2.9 1.8 -1.6 1.7 -1.7 8.2 -1.7 73 0 43.3 0.4 72.1 1 73.6 0.7 2 4.5 4.3 18 10.7 9.3 4.5 17 8.5 17 8.8 0 1 -10.8 6.1 -12.8 6 -0.9 0 -8.4 -3.3 -16.7 -7.3z"/>
  <path d="M302 728.5 c-10.3 -1.2 -11 -1.5 -31.1 -11.3 l-20.6 -10.1 -0.5 -8.8 c-0.3 -4.8 -0.3 -9.1 0.1 -9.5 0.5 -0.6 42 16.2 60.4 24.5 l5.7 2.6 0 7 c0 6.1 -0.2 7.1 -1.7 7 -1 -0.1 -6.5 -0.7 -12.3 -1.4z"/>
  <path d="M305 703.9 c-5.2 -2.2 -10.1 -4.7 -10.7 -5.6 -0.9 -1.2 -1.3 -6.8 -1.3 -19.2 0 -9.8 -0.5 -19.4 -1.1 -21.6 -0.6 -2.2 -2.8 -5.6 -4.9 -7.7 -3.3 -3.4 -4.3 -3.8 -8.7 -3.8 -5.3 0 -9.1 2.1 -11.6 6.3 -0.7 1.4 -1.4 8.2 -1.7 18.4 l-0.5 16.2 -7.2 -3.1 -7.3 -3 0 -26.9 c0 -14.8 0.1 -26.9 0.3 -26.9 0.1 0 2.7 0.9 5.7 1.9 7.8 2.8 9 1.9 9 -6.9 0 -3.9 0.2 -7 0.5 -7 0.2 0 3.5 1.1 7.2 2.5 3.9 1.5 7.8 2.3 9 2 2.1 -0.5 2.3 -1.1 2.3 -7.6 l0 -7.1 2.8 0.7 c1.5 0.3 8.7 3.2 16 6.3 l13.2 5.6 0 7.3 c0 8.2 -0.1 8.2 -7 5.8 -5.3 -1.9 -5.5 -1.9 -7.4 0.1 -2 1.9 -2.2 16.6 -0.3 20.4 0.8 1.7 3.4 3.3 7.7 5.1 l6.5 2.6 0.3 24.6 c0.1 13.6 -0.1 24.7 -0.5 24.7 -0.5 0 -5.1 -1.9 -10.3 -4.1z"/>
  <path d="M279.4 692.9 c-8.3 -3.5 -8.4 -3.6 -8.4 -18.4 0 -12.3 0.9 -18 3.2 -20.4 2.6 -2.9 5.4 -2.6 8.8 0.7 3.5 3.6 4.2 8.6 3.8 27.4 l-0.3 13.7 -7.1 -3z"/>
  <path d="M311.3 650.3 l-4.3 -1.5 0 -6 c0 -5.7 0.1 -5.9 2.3 -5.2 6.8 2.1 6.7 1.9 6.7 8.4 0 3.3 -0.1 6 -0.2 5.9 -0.2 0 -2.2 -0.7 -4.5 -1.6z"/>
  <path d="M254 621.3 c-4.5 -1.9 -5 -2.9 -4.8 -8 0.2 -4.8 1 -5.1 6.3 -2.6 3.3 1.6 3.5 2 3.5 6.4 0 2.6 -0.3 5 -0.7 5.2 -0.5 0.2 -2.4 -0.2 -4.3 -1z"/>
  <path d="M263.5 606.8 c-6.6 -2.8 -12.6 -5.5 -13.2 -6.1 -1.5 -1.1 -1.8 -10.7 -0.3 -10.7 0.8 0 6 2.1 26.8 10.7 0.7 0.3 1.2 2.5 1.2 5.9 0 3.7 -0.4 5.4 -1.2 5.4 -0.7 0 -6.7 -2.3 -13.3 -5.2z"/>
  <path d="M310.8 608.3 l-3.8 -1.6 0 -6.3 c0 -3.5 0.3 -6.4 0.8 -6.4 0.4 0.1 2.3 0.9 4.2 1.8 3.4 1.7 3.5 1.9 3.8 8 0.2 3.4 -0.1 6.2 -0.5 6.1 -0.4 -0.1 -2.5 -0.8 -4.5 -1.6z"/>
  <path d="M290 599.6 c-4.7 -1.9 -12 -5 -16.2 -6.9 l-7.8 -3.6 0 -6 c0 -4.1 0.4 -6.1 1.2 -6.1 1.6 0 29.9 11.9 31.6 13.2 1.3 1.1 1.8 12.8 0.5 12.8 -0.5 -0.1 -4.6 -1.6 -9.3 -3.4z"/>
  <path d="M253.3 584 l-4.3 -1.9 0 -6.6 c0 -7.3 0.2 -7.5 6.8 -4.5 l4.2 1.9 0 6.6 c0 7.3 -0.2 7.4 -6.7 4.5z"/>
  <path d="M511.2 585.2 c-6 -0.3 -6 -0.5 -1.7 -9.1 l2.2 -4.4 2.7 5.8 c1.5 3.3 2.5 6.4 2.4 6.9 -0.2 0.7 -2.5 1 -5.6 0.8z"/>
  <path d="M491.7 582.3 c-0.8 -1.6 -2.9 -7.2 -4.6 -12.5 -1.8 -5.4 -3.7 -10.1 -4.2 -10.4 -0.6 -0.3 -2.1 -0.3 -3.4 0 -2.8 0.7 -6.5 6.5 -10.2 16.2 l-2.6 6.7 -1.8 -3.6 c-1 -1.9 -3 -7.5 -4.4 -12.4 -1.4 -4.8 -2.8 -9.5 -3.1 -10.4 -0.2 -0.9 1.4 0.1 3.6 2.1 7.9 7.3 10.3 6.1 11.8 -6 0.6 -4.7 1.6 -9.9 2.2 -11.5 l1.2 -3 1.4 3.8 c4.7 13.3 16.7 29 23 30.3 l3.1 0.6 -2.6 6.4 c-2.3 5.6 -2.9 6.4 -5.3 6.4 -2 0 -3.1 -0.8 -4.1 -2.7z"/>
  <path d="M522.7 579 c-1.5 -3.4 -2.7 -6.3 -2.7 -6.6 0 -0.2 1 -0.4 2.2 -0.4 2.8 0 13 -10.6 17.6 -18.2 1.8 -3 4.1 -7.9 5.1 -10.9 l2 -5.4 1.1 3 c0.6 1.6 1.7 6.8 2.4 11.6 0.7 4.7 1.6 9.1 2 9.7 1.4 2.3 4.7 1.2 9.3 -3 3.3 -3.1 4.4 -3.7 4 -2.3 -3 10.9 -6.9 22.4 -8 23.9 -1.3 1.8 -1.5 1.7 -2.7 -2 -1.6 -5 -6.8 -15.4 -8.8 -17.6 -1.9 -2.2 -4.5 -2.3 -6.3 -0.2 -0.8 0.9 -3 6.7 -4.9 12.8 -3.4 10.8 -3.6 11.1 -6.6 11.4 -2.9 0.3 -3.3 -0.1 -5.7 -5.8z"/>
  <path d="M474 581.8 c0.1 -3.3 4.5 -13.4 5.6 -12.8 0.7 0.4 4.3 11.8 4.4 14.3 0 0.4 -2.2 0.7 -5 0.7 -4.5 0 -5 -0.2 -5 -2.2z"/>
  <path d="M539.4 582.3 c0.3 -1 1 -3.8 1.6 -6.3 1.8 -7.4 2.1 -8.1 3 -7.5 0.8 0.5 3.7 7.5 5.4 13.3 0.7 2.1 0.5 2.2 -4.9 2.2 -4.9 0 -5.6 -0.2 -5.1 -1.7z"/>
  <path d="M448.8 582.3 c-3.7 -0.4 -3.8 -0.6 -3.8 -4.3 0 -3.9 4 -16.4 5.8 -18.2 0.6 -0.6 1.7 1.7 3.1 6.4 1.2 4 2.9 9 3.6 11.1 2.4 6.1 2.4 6.1 -8.7 5z"/>
  <path d="M564.3 581.3 c0.3 -1 2 -6.3 3.7 -11.7 1.7 -5.5 3.2 -10.1 3.4 -10.4 0.9 -0.8 6.5 12.6 7.1 17.2 0.9 6 0.2 6.6 -8.4 6.6 -5.6 0 -6.3 -0.2 -5.8 -1.7z"/>
  <path d="M425.7 578.3 c-2.1 -1.5 -4 -3.7 -4.3 -4.9 -0.6 -2.4 2.2 -9.4 5.4 -13.4 l2 -2.4 0.7 4.9 c0.4 2.8 1.3 7.6 2.1 10.8 0.8 3.2 1.4 6.3 1.4 6.8 0 1.7 -3.5 0.9 -7.3 -1.8z"/>
  <path d="M591.4 577.3 c0.4 -2.1 1.3 -7.3 1.9 -11.6 1.2 -7.4 1.3 -7.8 2.9 -6 2.3 2.5 5.8 10.3 5.8 13 0 2.5 -6.5 8.3 -9.4 8.3 -1.6 0 -1.8 -0.5 -1.2 -3.7z"/>
  <path d="M402.9 579.1 c-4 -0.5 -5.2 -1.3 -8.4 -5.1 -2 -2.4 -5.3 -7.2 -7.3 -10.7 -3.7 -6.5 -5.1 -7.6 -5.4 -4.5 -0.3 4 0.5 7.9 2.8 13 1.3 3 2.4 5.6 2.4 5.8 0 0.6 -7.3 0.4 -9.7 -0.2 -2.8 -0.8 -16 -21.8 -20.8 -33.2 -5 -12 -10.1 -28.6 -12.1 -39.7 -2.7 -14.9 -2.5 -37.7 0.4 -52.3 3.3 -16.2 13.1 -45.1 15.7 -45.9 0.6 -0.1 2.4 1.9 4 4.5 3.8 6 5.9 6.2 6.3 0.5 0.5 -6.6 -2.8 -12.6 -10.5 -19.7 -12.6 -11.5 -18.3 -17.5 -22.1 -23.4 -4.6 -7.1 -8 -17.6 -6.6 -20 0.6 -1 5 -3.7 9.9 -6.2 8.3 -4.2 8.8 -4.4 9.9 -2.6 6.6 11.1 14 17.7 26.5 23.9 8.1 3.9 20.3 5.1 24.6 2.3 3.2 -2.1 2.5 -3.2 -2.5 -4.6 -2.2 -0.6 -4 -1.5 -4 -2 0 -2 24 -20.5 29.3 -22.6 1 -0.3 2.1 0.8 3.4 3.3 2.8 5.5 9.1 8.6 16.3 8 11.8 -1 15.6 -6.7 4.4 -6.7 -1.8 0 -5.1 -0.7 -7.2 -1.6 l-3.9 -1.5 -0.6 -12.2 c-0.7 -16.3 -2.4 -21.7 -9.1 -28.3 -6.4 -6.4 -12.7 -8.9 -26.7 -10.4 -20.6 -2.3 -30.8 -7.5 -38.7 -20 -1.9 -3 -7 -8.9 -11.2 -13 -8.7 -8.5 -11 -13.3 -11 -23.1 0 -14.5 8.9 -25.9 23 -29.5 18 -4.6 36 10.2 36 29.6 0 10.3 -7 22 -16.6 27.6 -5.6 3.3 -4.8 4.8 2.3 4 4.3 -0.5 6.1 -0.2 9.6 1.6 3.4 1.7 6.8 2.3 18.2 2.9 21 1.1 30.2 4.6 41.1 15.7 6.3 6.4 9.9 13.1 16.4 30.3 2.8 7.3 5.6 13.9 6.2 14.6 1.9 2.3 3.8 -0.5 3.8 -5.8 0 -5.6 -0.6 -5.3 14 -7 16.6 -1.9 46.5 0.1 60.5 3.9 2.9 0.8 3 1.1 3.3 7 0.3 5.4 0.6 6.2 2.2 6.2 1.5 0 3.2 -2.5 7 -10.5 8.7 -18.1 19.2 -26.9 38 -32 13 -3.4 18 -8.2 18 -17.1 0 -7.7 -3 -11.9 -13.4 -18.7 -4.8 -3.2 -9 -5.6 -9.3 -5.3 -0.3 0.3 -0.1 1.9 0.5 3.5 1.1 3 1 3.1 -1.9 3.1 -8 0 -15.9 -9.2 -15.9 -18.2 0.1 -4.7 3.1 -10.8 7.3 -14.5 6.2 -5.5 15.2 -5.7 21.6 -0.5 3.7 3 8.5 10.8 7.5 12.3 -0.3 0.5 -2.1 0.9 -4 0.9 -1.9 0 -3.4 0.3 -3.4 0.8 0 0.4 2.8 2.2 6.3 4.1 8.2 4.5 15.8 12.4 19.9 20.8 3 6.1 3.3 7.6 3.3 15.8 0 7.4 -0.4 9.8 -2.4 13.8 -3.4 6.9 -10.5 13.4 -21.6 19.7 -5.6 3.1 -11.2 7.1 -13.1 9.4 -4.2 4.9 -6.7 12.2 -7 21 -0.1 3.8 -0.8 7.4 -1.4 8 -0.7 0.7 -4.4 1 -9.6 0.9 -6.5 -0.2 -8.5 0 -8.2 1 0.8 2.5 8.2 5.1 15.5 5.5 7 0.4 7.4 0.3 10.3 -2.6 1.7 -1.7 3 -4.1 3 -5.5 0 -1.3 0.3 -2.6 0.6 -3 0.3 -0.3 4.8 2.7 10 6.6 9.7 7.5 10 8.2 4.2 10.1 -4.3 1.5 -4.5 3.1 -0.6 4.7 5.9 2.4 13.3 1.5 24.7 -3.1 19 -7.7 32.2 -6.5 47 4.2 20.1 14.5 17.5 13.3 27.6 13.3 l9 0 0.7 -6 c1.1 -8.8 5.9 -17.8 11.6 -22 6.1 -4.4 11.7 -5.9 19.5 -5.3 10.1 0.8 17.1 5.8 21.8 15.4 3.3 6.7 3.4 18.7 0.2 25.6 -8.5 18.7 -31.7 22.3 -47 7.5 -2.4 -2.2 -4.6 -3.7 -5 -3.3 -0.4 0.4 0 2.8 0.9 5.4 1 2.5 1.5 4.9 1.2 5.2 -0.3 0.3 -5.2 0.5 -10.8 0.5 l-10.3 0 -14.6 -7.5 c-12.9 -6.5 -15.5 -7.5 -21.2 -7.8 -11.7 -0.8 -21.3 6 -24.5 17.3 -0.9 3.1 -1 5.6 -0.4 7.8 1.5 5.1 3.7 4.5 6.3 -1.8 1.3 -3.1 2.8 -5.4 3.4 -5.2 1.5 0.5 8 16.3 11.2 27.2 5.1 17.5 6.8 31.1 6.3 50.5 -0.6 21.3 -3.4 35 -11 54.2 -5.1 12.8 -17.6 36.2 -20.6 38.6 -1.5 1.1 -11.2 1.8 -11.2 0.7 0 -0.3 1.1 -3.2 2.5 -6.4 2.8 -6.8 4.1 -13.6 2.8 -14.4 -0.6 -0.4 -4 3.8 -7.6 9.1 -3.6 5.4 -7.5 10.6 -8.7 11.7 -2.3 2 -14 3.5 -14 1.8 0 -0.6 2.9 -4.8 6.4 -9.5 15.4 -20.5 20.6 -37.4 16 -52.7 -4.6 -15.6 -22 -21.5 -43.2 -14.7 -4.5 1.5 -14.9 5.6 -23 9 -45.4 19.5 -66 19.5 -112.4 0 -20.7 -8.7 -30.4 -11.5 -40.8 -11.6 -12.4 -0.2 -21.4 5.1 -25.6 15 -2.2 5.3 -2.9 15.9 -1.4 22.3 1.7 7.6 9 22 15.7 31.3 3.2 4.3 6.4 8.7 7.2 9.7 1.5 2.1 1.2 2.2 -8 1z m-24.3 -58.8 c1.2 -5.5 3 -11.5 3.8 -13.2 2.6 -4.9 7.7 -10.2 13.4 -13.8 2.8 -1.8 5.2 -3.8 5.2 -4.4 0 -2 -3.3 -2.2 -8.8 -0.5 -11.6 3.7 -20.2 16 -20.3 29 -0.1 7.1 1.7 13.9 3.3 13.4 0.6 -0.2 2.1 -4.9 3.4 -10.5z m272.2 6.1 c3 -8.6 -1 -23.8 -8.1 -31.3 -4.1 -4.3 -10.1 -7.1 -15.4 -7.1 -5.2 0 -5.4 1.1 -0.9 4 1.9 1.1 5.9 4.8 9 8.1 5.8 6.3 8 11.4 10.7 24.8 1.3 7 2.7 7.4 4.7 1.5z m-115.6 -22.3 c9.9 -2.6 19.7 -6.5 27.3 -10.9 7.1 -4.2 17.2 -13.9 15.8 -15.3 -0.5 -0.5 -5.7 1.6 -13.3 5.4 -6.9 3.5 -15.5 7.3 -19.3 8.5 -20.8 6.8 -46.8 6.8 -67 0.1 -3.4 -1.1 -12.2 -4.9 -19.6 -8.5 -7.3 -3.5 -13.5 -6.4 -13.7 -6.4 -1.7 0 0.4 3.6 4.2 7.4 9.8 9.8 30.1 18.8 49.9 21.9 6.8 1.1 28.1 -0.2 35.7 -2.2z m1.2 -20.1 c10.7 -2.4 24 -8.1 33.5 -14.4 14.5 -9.6 30.5 -27.3 31.8 -34.9 1.1 -6.7 -7.8 -21.5 -21.6 -35.9 l-9.2 -9.7 4.6 -0.7 c2.6 -0.3 8.2 -0.3 12.6 0 4.5 0.4 7.9 0.4 7.9 -0.2 0 -1.3 -4 -4.7 -8 -6.8 -2.7 -1.5 -5.6 -1.9 -12.5 -1.9 -8.2 0 -9.8 0.4 -18 3.9 -26.2 11.1 -35.2 13.3 -50.3 12.3 -10.6 -0.7 -18.2 -2.7 -28.7 -7.4 -17 -7.5 -24.3 -9.6 -32 -9.1 -4.3 0.3 -8.5 1.3 -11 2.5 -4.1 2.1 -8.5 6.2 -6.9 6.4 0.5 0 5.7 0.2 11.6 0.2 5.8 0.1 11 0.5 11.3 0.9 0.4 0.4 -3.2 4.7 -8.1 9.6 -9.1 9 -19.3 23.9 -21.6 31.3 -0.9 3.2 -0.7 4.3 1.3 8.3 5.5 11.1 21.2 26.4 35.4 34.5 9.5 5.5 24.5 10.7 36.2 12.6 11.2 1.8 29.7 1.2 41.7 -1.5z m218.5 -94.1 c6.6 -7.1 3.7 -28.6 -3.7 -27.7 -7.8 0.9 -9.7 22.1 -2.4 27.8 3.1 2.5 3.7 2.5 6.1 -0.1z m-385 -144.8 c6.1 -6.1 4.7 -26.5 -2 -28.6 -5.5 -1.8 -10.2 10 -8 20.1 1.1 5 4.8 10.4 7.1 10.4 0.5 0 1.9 -0.9 2.9 -1.9z"/>
  <path d="M484 473.6 c-14.8 -4.2 -31.9 -14.3 -35.3 -21 -2.9 -5.6 -3.6 -22.6 -1.2 -31.6 2.2 -8.6 5.6 -15.6 10.1 -20.8 5.8 -6.8 6.2 -6.8 16.3 -2.3 25.9 11.7 50.4 11.5 77.4 -0.6 l7.9 -3.5 3.5 3.3 c5.5 5.3 9 11.1 11.7 19 3.1 9.6 4 17.7 2.6 26.7 -1.3 9.3 -2.9 12.4 -8.8 16.7 -6 4.4 -21.4 12 -27.2 13.5 -2.5 0.6 -5.4 1.4 -6.4 1.7 -1.4 0.4 -0.8 -0.8 2.1 -4.3 7.2 -8.7 8.8 -12.7 8.8 -22.9 0 -6.8 -0.5 -10.1 -1.9 -13.3 l-1.9 -4.3 -1.8 2.8 c-2.4 3.7 -7.5 6.3 -12.1 6.3 -3 0 -4.7 -0.8 -7.6 -3.4 -3.3 -3.1 -3.7 -3.9 -3.7 -8.5 0 -4.3 0.4 -5.5 3.4 -8.5 1.9 -2 3.2 -3.8 2.9 -4.1 -1.3 -1.3 -11.7 -2.2 -16.6 -1.4 -11.4 1.8 -20.5 8.7 -25.8 19.5 -2.5 5.1 -2.9 7 -2.9 14.4 0 7.2 0.4 9.3 2.7 14 1.5 3.1 4.4 7.5 6.3 9.8 2 2.3 3.3 4.2 2.8 4.1 -0.4 0 -2.8 -0.6 -5.3 -1.3z"/>
  <path d="M436.7 442.8 c-4.8 -6.5 -5.7 -8.3 -5.7 -10.8 0 -2.8 5.8 -13.2 9.2 -16.5 l2 -2 -0.6 2.8 c-1.6 6.8 -2.6 18.7 -2 24 0.4 3.1 0.4 5.7 0.1 5.7 -0.3 0 -1.7 -1.5 -3 -3.2z"/>
  <path d="M583.8 437.2 c0.2 -5.6 -0.2 -11.4 -1.2 -16.1 -0.9 -4.1 -1.4 -7.6 -1.2 -7.9 0.6 -0.5 7.8 10.2 10.5 15.6 l2.2 4.3 -3.5 4.7 c-1.9 2.6 -4.3 5.5 -5.3 6.4 -1.9 1.7 -1.9 1.5 -1.5 -7z"/>
  <path d="M584.1 572.1 c-3.2 -11.2 -9.6 -21.1 -13.8 -21.1 -0.8 0 -1.3 -0.3 -1.1 -0.8 0.2 -0.4 1.6 -4 3.2 -8.1 3.6 -8.7 4.4 -7.8 4.5 4.7 l0.1 8.2 3 0 c4.1 0 11.7 -7.1 15.7 -14.6 l3 -5.6 0.6 3.1 c0.4 1.7 1.4 3.4 2.3 3.8 4.7 1.8 14.4 -8.2 19 -19.4 1.2 -3.2 2.7 -5.7 3.1 -5.6 1.2 0.2 3.2 6.4 3.2 10.3 0.2 8.7 -6 23.4 -14.5 34.9 -3.6 4.8 -5.4 6.2 -5.4 4.2 0 -2.3 -8.3 -12.9 -11.4 -14.6 -4.9 -2.7 -6.1 -1.2 -7.5 9.3 -0.6 4.8 -1.5 10.3 -2 12.2 l-0.8 3.5 -1.2 -4.4z"/>
  <path d="M437.6 574.2 c-0.3 -0.6 -1.3 -5.9 -2.1 -11.8 -1.9 -13.2 -3.4 -14.8 -9.4 -9.8 -1.7 1.4 -4.8 5.3 -6.8 8.6 l-3.7 6.1 -3.9 -4.4 c-4.9 -5.5 -10 -14.6 -12.7 -22.9 -1.7 -5 -2.1 -8.3 -1.8 -14.2 0.5 -11.3 1.8 -11.6 6.6 -1.6 6.2 12.7 14.6 20.2 18.7 16.8 0.8 -0.7 1.5 -2.7 1.5 -4.4 l0.1 -3.1 2 4 c4.5 9.3 14 19 17.8 18.3 1.3 -0.3 1.7 -2.4 2.2 -10.1 0.7 -10 1.4 -12.5 2.5 -9.1 0.3 1 1.9 4.7 3.5 8.2 2.5 5.6 2.6 6.2 1 6.2 -4.5 0 -9.3 6.9 -13.1 18.9 -0.9 3 -2 4.9 -2.4 4.3z"/>
  <path d="M507.3 557.6 c0.7 -9.4 3.4 -19.3 4.8 -17.9 1.4 1.4 4.1 16.7 3.7 21.5 l-0.3 4.2 -4.4 0.1 -4.4 0.1 0.6 -8z"/>
  <path d="M495.2 559.4 c-5.2 -5.8 -11.1 -17.5 -11.9 -23.4 -0.6 -4.2 -0.5 -4.3 1.8 -3.7 1.3 0.4 6.3 1.3 11.2 1.9 7.1 1 8.6 1.5 8.1 2.8 -1.7 4.6 -3.4 13.1 -3.5 18 0 3 -0.4 6.3 -0.8 7.4 -0.6 1.6 -1.2 1.2 -4.9 -3z"/>
  <path d="M522.6 557.3 c-0.5 -5 -3.1 -17.8 -4.3 -20.8 -0.2 -0.7 3.4 -1.6 9 -2.3 5.2 -0.6 10.2 -1.4 11.1 -1.8 3.1 -1.2 1.9 5.9 -2.4 14.1 -3.9 7.7 -10.4 16.5 -12 16.5 -0.5 0 -1.1 -2.6 -1.4 -5.7z"/>
  <path d="M556.5 549.3 c-0.4 -3.2 -1.7 -9.3 -2.9 -13.5 l-2.3 -7.7 8.1 -3 c4.5 -1.6 8.9 -3.2 9.9 -3.6 5.6 -2.3 -3.3 25.7 -10.3 32 -1.7 1.5 -1.8 1.3 -2.5 -4.2z"/>
  <path d="M463.3 551.7 c-6 -6.5 -14.3 -30.7 -10.5 -30.7 1.7 0 19.2 7.2 19.2 8 0 0.4 -0.7 2.5 -1.6 4.6 -0.9 2.2 -2.3 7.5 -3 11.8 -0.8 4.4 -1.6 8.1 -1.7 8.3 -0.2 0.1 -1.3 -0.7 -2.4 -2z"/>
  <path d="M435.7 542.3 c-5.2 -7.6 -8 -15.3 -8.5 -23.5 -0.3 -4.3 -0.2 -7.8 0.1 -7.8 1.1 0 15.2 5.2 16 5.9 0.4 0.4 0.1 3.6 -0.7 7.2 -0.8 3.5 -1.8 9.9 -2.2 14.2 -0.4 4.2 -1 7.7 -1.4 7.7 -0.4 0 -1.9 -1.7 -3.3 -3.7z"/>
  <path d="M581.6 533.8 c-2.8 -18.8 -3.3 -16.9 5.4 -20 4.1 -1.5 7.8 -2.7 8.3 -2.7 0.4 -0.1 0.7 2.5 0.7 5.7 0 6.2 -2.2 14.9 -4.8 19.1 -3.6 6 -6.5 10.1 -7.1 10.1 -0.4 0 -1.5 -5.5 -2.5 -12.2z"/>
  <path d="M414.9 531 c-5.4 -7.1 -10 -19.3 -8.1 -21.2 0.9 -0.9 10.8 -1.5 11.6 -0.7 0.2 0.2 0.1 6 -0.3 12.9 l-0.6 12.5 -2.6 -3.5z"/>
  <path d="M605 525.6 c0 -4 -0.3 -9.3 -0.6 -11.8 -0.7 -5.3 -0.1 -5.8 7.1 -4.9 4.5 0.5 5 0.9 5.3 3.4 0.5 4.5 -7.9 20.7 -10.9 20.7 -0.5 0 -0.9 -3.3 -0.9 -7.4z"/>
  <path d="M280.5 500.1 c-7.2 -1.8 -14.2 -7.7 -16.9 -14.3 -2.2 -5.3 -2 -14.3 0.5 -19.8 4.4 -9.7 12.6 -15.3 22.6 -15.4 6.6 -0.1 8.1 -1.4 4.3 -3.8 -2.8 -1.8 -2.5 -4.9 0.9 -11.7 8.5 -16.8 26.7 -28.5 46.3 -29.8 l8.6 -0.6 -3.4 8.4 c-1.8 4.6 -3.6 9.8 -4 11.5 -0.6 3.1 -0.6 3.2 -7.7 3.6 -8.7 0.6 -14.1 3.1 -19 8.8 -6.1 7.2 -7.4 16.5 -4.3 31.4 1.3 6.3 1.5 8.9 0.6 13 -1.9 9.4 -7.5 15.4 -16.6 18.2 -5.1 1.5 -7.2 1.6 -11.9 0.5z m11.1 -14.3 c3.2 -6.1 1.6 -18.7 -2.6 -21.3 -2.1 -1.3 -6 0.5 -7.5 3.5 -2.2 4.3 -2 13.7 0.5 17.8 1.5 2.4 2.7 3.2 5 3.2 2.3 0 3.3 -0.7 4.6 -3.2z"/>
  <path d="M707.9 479 c-4.2 -2.2 -6.1 -4.8 -8.3 -11.4 -2.2 -6.5 -4.4 -10.6 -7.1 -13.6 -1.5 -1.6 -2.8 -4.8 -3.5 -8.9 -0.6 -3.5 -2 -9.1 -3.1 -12.5 -1 -3.3 -1.9 -6.2 -1.9 -6.3 0 -0.2 0.8 -0.3 1.8 -0.3 2.6 0 12.6 8.3 15.9 13.2 3.2 4.7 4.6 8 6.3 14.6 0.6 2.3 1.4 4.2 1.8 4.2 0.5 0 1.8 -2 3 -4.5 1.8 -3.8 2.6 -4.5 5 -4.5 3.3 0 8.6 3.3 11.5 7.1 1 1.5 2.2 4.7 2.4 7.2 0.7 5.9 -2.5 12.8 -7.1 15.7 -4.3 2.6 -11.8 2.6 -16.7 0z"/>
  <path d="M270.3 366.6 c-9 -2.9 -14.8 -8.1 -18.9 -17.1 -6.3 -13.4 -0.1 -31.2 13.6 -38.9 4.9 -2.8 6.4 -3.1 13.5 -3.1 6.7 0 8.8 0.5 13.1 2.7 6 3.1 10.4 7.9 14 15 2.9 5.8 4.4 5.2 4.4 -1.8 l0 -4.2 5.9 -1 c3.3 -0.6 11.3 -3.6 17.9 -6.6 6.6 -3 15.5 -6.5 19.8 -7.7 14.3 -3.9 29.5 -2.4 42.8 4.3 6.4 3.2 15.9 11.7 18.9 16.7 1.8 3 1.8 3 -1 4.8 -1.5 0.9 -6.7 4.6 -11.4 8 -4.8 3.5 -9.1 6.3 -9.6 6.3 -0.4 0 -1.7 -1.6 -2.8 -3.6 -3.1 -5.8 -10 -11.2 -17.3 -13.4 -8.1 -2.5 -14.8 -2.5 -24.4 -0.1 -9.7 2.5 -15.4 5.4 -25.2 13 -4.3 3.4 -8.2 6.1 -8.7 6.1 -0.5 0 -4.9 3.8 -9.7 8.4 -4.9 4.6 -10.9 9.4 -13.3 10.7 -5.4 2.7 -15.6 3.5 -21.6 1.5z m4.1 -16.9 c1.7 -2.3 2.1 -4.2 2 -10.5 0 -11.9 -4.4 -18.3 -9.6 -14.2 -5.9 4.6 -6.3 19.8 -0.7 25.9 2.6 2.8 5.6 2.4 8.3 -1.2z"/>
  <path d="M374.5 347.5 c-5.2 -3.6 -10.1 -9.2 -9.1 -10.2 1.3 -1.3 9.7 3.1 13 6.8 6.5 7.1 4.1 9.2 -3.9 3.4z"/>
  <path d="M620.6 337.9 c-5 -3.6 -8.6 -6.9 -8.6 -7.9 0 -2.3 2.7 -4.5 16.2 -13.3 7.1 -4.7 13.3 -9.7 15.9 -12.7 4.8 -5.7 3.9 -5.6 21.4 -1.9 10.7 2.3 17.6 2.4 21.4 0.4 3.4 -1.7 4.1 -3.3 4.1 -8.7 0 -3.7 -0.6 -4.6 -7.4 -11.3 -6.4 -6.2 -7.7 -8 -9.2 -13 -4 -13.9 2.4 -29.1 15.1 -35.8 3 -1.6 5.8 -2.1 11 -2.2 5.9 0 7.8 0.5 12.4 3 16.8 9.3 19.7 34.4 5.5 47.5 -2.4 2.2 -6 4.8 -7.9 5.7 -4.3 2.1 -4.5 3.3 -0.5 3.3 4.2 0 4.6 2 2 9.3 -4.3 12.1 -9.8 18.5 -19.8 23 -4 1.8 -6.2 2 -14.2 1.7 -22.2 -0.8 -27.3 -0.6 -31.5 1.5 -4.9 2.4 -12.7 10.2 -14.5 14.4 -0.7 1.7 -1.6 3.1 -2 3.1 -0.4 0 -4.6 -2.8 -9.4 -6.1z m80.9 -65.1 c2.9 -4.8 2.8 -17.5 -0.1 -21.5 -2.8 -3.7 -6.8 -4.2 -8.8 -1.1 -5.7 8.7 -2.9 25.8 4.2 25.8 2.1 0 3.3 -0.8 4.7 -3.2z"/>
  <path d="M416.6 308.4 c-4.3 -4.1 -7.6 -7.7 -7.4 -7.9 0.9 -0.9 7.1 1.5 10.3 3.9 3.1 2.4 6.1 8.4 5.3 10.5 -0.2 0.5 -3.8 -2.4 -8.2 -6.5z"/>
  <path d="M479.7 303.3 c-0.2 -0.5 -1.2 -3.2 -2.1 -6 -2.5 -7.5 -10.3 -19 -17 -25 -5 -4.4 -16 -10.8 -22 -12.7 -4.1 -1.4 2.2 -11.2 9.1 -14.2 11.3 -4.8 23.3 4.2 23.3 17.4 0 3.1 1.2 5.7 5.7 12.3 3.6 5.3 6.7 11.4 8.5 16.7 3.8 11.4 3.8 12.2 -1.1 12.2 -2.2 0 -4.2 -0.3 -4.4 -0.7z"/>
  <path d="M500.2 301.2 c-0.2 -0.7 -0.2 -3.9 0.1 -7 0.9 -8.8 6.2 -18.1 17.3 -30.6 10.7 -12.2 13.3 -16.8 13.4 -23.9 0 -6.2 -1.9 -10.5 -6.3 -14.4 l-3.5 -3.1 2.2 -3.3 c2.9 -4.2 4 -7.6 2.8 -8.3 -0.5 -0.3 -1.8 0.4 -2.8 1.6 -5.4 5.9 -17.5 10.4 -25.6 9.5 -10.7 -1.3 -20.4 -8.1 -24.9 -17.5 -3.3 -6.9 -3.2 -17.8 0.3 -25.3 8.5 -18.5 30.1 -23.5 44.7 -10.3 5.8 5.2 8.7 10.4 13.3 23.2 1.9 5.5 5.7 12.9 10.4 20.1 10.3 15.9 11.8 20.1 11.9 33.1 0 9.3 -0.3 11.1 -2.7 16.2 -1.5 3.2 -4.7 8.6 -7.1 12 -6.9 9.7 -9.9 16.5 -10.5 23.4 l-0.4 6.1 -16 -0.1 c-12.3 -0.1 -16.2 -0.4 -16.6 -1.4z m-4.3 -98.8 c2.2 -4.3 1.9 -15 -0.4 -19.9 -1.7 -3.3 -2.5 -4 -4.9 -4 -4.1 0 -6.6 3.8 -7.3 11.1 -0.7 7.5 1 13.7 4.4 16.4 2.3 1.8 2.9 1.9 4.7 0.7 1.2 -0.8 2.7 -2.7 3.5 -4.3z"/>
  <path d="M713.4 836.5 c-1.8 -2.8 -1.4 -8.5 0.7 -11.2 1.3 -1.5 5.3 -1.1 7.6 0.9 1.8 1.5 1.6 9.3 -0.3 11.2 -2.4 2.4 -6.1 2 -8 -0.9z"/>
  <path d="M701.8 834.9 c-2.1 -1.2 -2.4 -6.5 -0.6 -10.4 0.7 -1.7 1.9 -2.5 3.6 -2.5 2.3 0 2.4 0.3 1.8 3.8 -0.3 2 -0.6 5.2 -0.6 7 0 3.3 -1.1 3.9 -4.2 2.1z"/>
  <path d="M669.5 827.9 c-12.1 -2.7 -25.4 -5.7 -29.5 -6.7 l-7.5 -1.8 -0.3 -3.8 c-0.5 -5.5 1.5 -9.9 4.2 -9.2 1.2 0.3 14.5 3.3 29.6 6.6 15.1 3.4 27.9 6.5 28.4 7 0.5 0.5 0.4 2.2 -0.3 4.1 -0.6 1.7 -1.1 4.5 -1.1 6 0 1.6 -0.3 2.9 -0.7 2.8 -0.5 0 -10.7 -2.3 -22.8 -5z"/>
  <path d="M618.5 813.7 c-6.6 -4.3 -6.5 -5.9 0.8 -7.6 3.2 -0.7 5.9 -1.2 6.1 -1 0.6 0.7 -0.6 11.9 -1.3 11.9 -0.3 0 -2.9 -1.5 -5.6 -3.3z"/>
 </g>
</svg>